HIERARCHY
ROOT Hips
{
	OFFSET -0.179506 -22.333345 2.821913
	CHANNELS 6 Xposition Yposition Zposition Zrotation Yrotation Xrotation 
	JOINT LeftUpLeg
	{
		OFFSET 6.951974 -9.140623 -0.681533
		CHANNELS 3 Zrotation Yrotation Xrotation
		JOINT LeftLeg
		{
			OFFSET 3.427654 -37.519855 -0.449580
			CHANNELS 3 Zrotation Yrotation Xrotation
			JOINT LeftFoot
			{
				OFFSET -1.359570 -39.796059 -4.369333
				CHANNELS 3 Zrotation Yrotation Xrotation
				JOINT LeftToe
				{
					OFFSET 2.635814 -5.579078 11.928840
					CHANNELS 3 Zrotation Yrotation Xrotation
					End Site
					{
						OFFSET 0.000000 0.000000 0.000000
					}
				}
			}
		}
	}
	JOINT RightUpLeg
	{
		OFFSET -6.767048 -9.052170 -0.431982
		CHANNELS 3 Zrotation Yrotation Xrotation
		JOINT RightLeg
		{
			OFFSET -3.829005 -38.256897 -0.885003
			CHANNELS 3 Zrotation Yrotation Xrotation
			JOINT RightFoot
			{
				OFFSET 1.577377 -39.841461 -4.231180
				CHANNELS 3 Zrotation Yrotation Xrotation
				JOINT RightToe
				{
					OFFSET -2.537174 -4.814398 12.334795
					CHANNELS 3 Zrotation Yrotation Xrotation
					End Site
					{
						OFFSET 0.000000 0.000000 0.000000
					}
				}
			}
		}
	}
	JOINT Spine
	{
		OFFSET -0.253288 10.896323 -2.669631
		CHANNELS 3 Zrotation Yrotation Xrotation
		JOINT Spine1
		{
			OFFSET 0.548704 13.518043 0.109247
			CHANNELS 3 Zrotation Yrotation Xrotation
			JOINT Spine2
			{
				OFFSET 0.145701 5.292222 2.542457
				CHANNELS 3 Zrotation Yrotation Xrotation
				JOINT Neck
				{
					OFFSET -0.277840 21.387037 -4.285703
					CHANNELS 3 Zrotation Yrotation Xrotation
					JOINT Head
					{
						OFFSET 0.515184 6.496960 5.134897
						CHANNELS 3 Zrotation Yrotation Xrotation
						End Site
						{
							OFFSET 0.000000 0.000000 0.000000
						}
					}
				}
				JOINT LeftShoulder
				{
					OFFSET 7.884473 12.174932 -3.408961
					CHANNELS 3 Zrotation Yrotation Xrotation
					JOINT LeftArm
					{
						OFFSET 9.097692 3.046888 -0.886815
						CHANNELS 3 Zrotation Yrotation Xrotation
						JOINT LeftForeArm
						{
							OFFSET 25.961220 -1.277207 -2.745643
							CHANNELS 3 Zrotation Yrotation Xrotation
							JOINT LeftHand
							{
								OFFSET 24.923361 0.898606 -0.117091
								CHANNELS 3 Zrotation Yrotation Xrotation
								End Site
								{
									OFFSET 0.000000 0.000000 0.000000
								}
							}
						}
					}
				}
				JOINT RightShoulder
				{
					OFFSET -8.175920 11.883285 -3.861528
					CHANNELS 3 Zrotation Yrotation Xrotation
					JOINT RightArm
					{
						OFFSET -9.601238 3.255117 -0.914307
						CHANNELS 3 Zrotation Yrotation Xrotation
						JOINT RightForeArm
						{
							OFFSET -25.374195 -1.332924 -2.140099
							CHANNELS 3 Zrotation Yrotation Xrotation
							JOINT RightHand
							{
								OFFSET -25.529810 0.777228 -0.555919
								CHANNELS 3 Zrotation Yrotation Xrotation
								End Site
								{
									OFFSET 0.000000 0.000000 0.000000
								}
							}
						}
					}
				}
			}
		}
	}
}
MOTION
Frames: 18
Frame Time: 0.033333
61.412788 43.310841 87.482933 171.746973 -3.648833 95.286721 36.196907 17.851359 -16.215950 -6.129064 -9.863049 14.576326 -18.747043 12.922965 19.744450 nan nan nan -29.255908 -22.732142 -45.740813 9.516751 -11.644658 102.829776 12.716522 9.178300 -11.386585 nan nan nan -2.103047 -4.483026 27.907651 -0.854558 -0.464924 -4.617465 -2.872924 -2.706860 3.122844 -7.526797 11.387433 2.070119 -1.687192 2.009323 -15.881015 -1.466722 11.139422 3.150856 -21.284758 17.963400 -10.538563 2.431955 -29.428953 -7.132460 14.288979 -12.388606 -29.619684 0.845557 -9.223824 -1.760966 15.455535 -9.236074 -13.328788 -3.007465 40.961223 -6.219412 0.731201 15.808190 -7.093450 
59.362160 43.583424 87.008743 171.665607 -3.498396 95.397367 34.863052 17.729251 -16.858160 -5.665852 -8.376023 16.461091 -18.781831 15.487466 16.055321 nan nan nan -26.968040 -22.562936 -47.948873 9.624561 -13.430057 105.204456 13.342514 11.146099 -11.333829 nan nan nan -2.068842 -4.965268 28.897677 -0.997799 -0.484383 -5.108385 -2.713305 -2.500276 3.150455 -7.984135 10.920326 1.272995 -1.276292 2.480190 -15.942334 -2.724391 11.593113 2.376437 -22.877898 18.143977 -10.566199 3.140137 -30.954366 -8.254446 13.374754 -12.085962 -30.238939 1.542615 -9.501743 -1.283294 16.380028 -10.146119 -13.412888 -1.368278 40.364366 -4.672598 -0.165193 15.934281 -7.963759 
57.288204 43.843140 86.468048 171.324812 -3.343281 95.568633 33.467873 17.891706 -17.541127 -5.174002 -6.970834 18.616564 -17.732583 17.459799 11.591315 nan nan nan -24.358881 -22.310435 -50.462356 9.850928 -15.149664 107.083880 13.786958 12.549638 -11.505165 nan nan nan -2.074713 -5.410337 29.901548 -1.215741 -0.451687 -5.632065 -2.435792 -2.329349 3.263922 -8.180665 10.265614 0.542170 -1.489115 3.614971 -16.527405 -4.287394 12.106754 1.371510 -24.187930 18.170074 -10.466828 3.584929 -32.072698 -9.368541 12.964686 -11.666871 -30.396605 2.082008 -9.699348 -0.888281 17.533290 -10.672875 -13.183829 -0.016335 39.905280 -3.703180 -0.845434 15.639510 -8.027848 
55.227715 44.105209 85.869514 170.802882 -3.157338 95.697366 32.646416 18.664347 -17.977563 -5.348195 -5.256966 20.527630 -16.440188 16.675281 6.798485 nan nan nan -21.332687 -21.979437 -53.128795 10.242490 -16.756574 108.361392 13.663712 13.617476 -12.111155 nan nan nan -2.142769 -5.861017 31.098401 -1.478859 -0.404086 -6.022372 -2.173065 -2.109022 3.114494 -8.074945 9.788475 -0.235151 -1.908137 4.976036 -17.266981 -5.917952 12.665423 0.402663 -25.392948 18.099443 -10.214401 4.006447 -33.152935 -10.490566 12.941230 -11.673657 -30.454530 2.625484 -9.654647 -0.289377 19.149726 -10.923642 -12.682659 0.554705 39.637526 -3.683729 0.277972 15.984872 -7.828585 
53.162045 44.349136 85.206360 170.271314 -3.028504 95.730010 32.172300 19.499250 -18.223633 -6.097402 -3.569252 22.182024 -13.863510 15.515112 2.538341 nan nan nan -18.159411 -21.572302 -55.698274 10.765800 -18.266751 109.028860 13.158688 14.225233 -12.627381 nan nan nan -2.391234 -6.387020 32.498168 -1.796671 -0.207354 -6.576077 -2.177936 -1.800817 3.165074 -8.179301 9.703442 -1.994542 -0.891466 4.903936 -16.613946 -7.268794 13.310645 -0.474939 -26.720576 17.556945 -9.838079 4.931952 -34.415997 -11.297782 12.876194 -11.310037 -31.129229 3.795427 -9.600335 0.376615 20.891161 -10.710321 -12.229594 0.522075 39.168704 -3.909690 0.715862 16.037652 -8.235862 
51.135471 44.552444 84.540741 170.058652 -2.924178 95.650447 31.918230 20.749402 -18.944188 -7.884219 -4.571983 24.536208 -11.125196 13.849811 -0.376286 nan nan nan -14.839335 -21.314607 -57.998445 11.422530 -19.625618 108.954330 12.495700 14.296529 -12.855566 nan nan nan -2.709924 -6.732089 34.333183 -2.006018 -0.051491 -7.497470 -1.622730 -1.729808 3.511852 -8.263540 8.131049 -3.278034 -0.929249 6.990509 -17.105355 -9.522154 13.349360 -1.676812 -27.411675 17.102034 -9.552594 5.461051 -35.552444 -11.969643 13.155402 -10.221605 -31.733354 4.446828 -9.260606 0.434780 22.727928 -10.835240 -12.034219 1.081063 38.820874 -4.360170 1.239594 16.041983 -8.101226 
49.213486 44.709576 83.871147 169.961822 -2.873461 95.561604 31.321222 22.622889 -21.222233 -8.314814 -4.030908 28.725478 -11.462708 11.171249 -2.131391 nan nan nan -11.658139 -20.679554 -60.019094 11.392098 -20.708099 108.351393 12.312547 15.032089 -12.759500 nan nan nan -3.200848 -6.644636 36.168365 -1.931098 0.004665 -7.923644 -0.975354 -1.742643 3.513043 -7.771132 7.243869 -4.697859 -1.523446 8.504819 -17.518484 -11.972327 12.876265 -2.747612 -27.772333 16.408409 -9.010009 6.073930 -36.206946 -13.108528 13.088444 -9.864769 -31.673559 5.694437 -8.961254 0.118779 23.941801 -10.752043 -11.830890 1.898548 38.303105 -4.946322 1.271055 16.089591 -7.732407 
47.466789 44.758080 83.249321 170.174256 -3.331547 95.913944 29.599457 23.150229 -25.543368 -8.139420 -3.628578 34.530447 -11.653167 9.758211 -3.123968 nan nan nan -9.042425 -19.760230 -62.143430 11.336183 -21.792067 106.925923 12.290091 15.778659 -12.719204 nan nan nan -4.399575 -6.228468 37.492500 -1.433040 -0.264625 -7.970950 -0.358966 -1.855024 3.205069 -7.428376 7.062583 -6.717441 -1.176004 8.726998 -16.980337 -14.525592 12.263609 -3.796225 -27.514192 15.636782 -8.045707 6.800329 -36.731433 -14.604462 12.990573 -9.789776 -30.895853 7.830625 -8.453883 -0.240056 24.773684 -10.329009 -11.438697 2.053146 37.593791 -6.032244 1.307150 15.710487 -7.400488 
45.938854 44.587730 82.705917 171.336164 -4.312586 96.515787 27.673030 21.355644 -30.189021 -8.148512 -2.771948 38.920886 -10.983468 9.738294 -2.958623 nan nan nan -7.261912 -19.064582 -64.027370 11.480907 -23.084371 104.513903 12.336518 16.070667 -12.741990 nan nan nan -6.206358 -5.676144 38.615377 -0.415481 -0.881229 -7.824335 0.451932 -2.087428 2.936915 -6.885475 7.031982 -8.678224 -1.049620 8.431585 -17.014467 -16.717597 11.369011 -4.342649 -27.325795 14.051088 -6.866146 7.646970 -36.743456 -16.073343 13.182598 -9.916929 -30.443890 10.187587 -8.166729 -0.687797 25.928877 -9.267700 -10.481585 1.178029 36.495105 -7.775970 1.374298 15.345343 -7.804654 
44.513218 44.405682 82.269241 172.562129 -5.469627 96.986218 26.236918 19.075870 -33.922787 -9.064841 -2.080340 42.051775 -10.125984 10.521500 -2.463959 nan nan nan -5.981327 -18.260735 -65.308621 11.572485 -24.074629 101.443554 12.139771 16.243916 -12.744056 nan nan nan -7.935105 -4.957217 39.689750 0.549503 -1.564961 -7.630350 1.135701 -2.297054 2.817588 -6.346744 7.467170 -10.654302 -0.478934 7.149170 -16.478977 -18.493711 10.211637 -4.642720 -27.043051 11.862102 -5.620719 8.135772 -36.148913 -16.896344 13.758067 -10.130777 -30.641108 12.820186 -7.904354 -1.137533 27.113414 -7.700763 -9.590136 0.288434 34.808142 -8.590826 1.237792 15.204538 -9.287727 
43.081516 44.204781 81.944687 173.753502 -6.604268 97.347763 25.970150 16.910463 -35.915803 -10.477074 -0.308072 43.092144 -10.545347 10.227952 -2.321666 nan nan nan -5.005958 -17.298058 -66.080744 11.508896 -24.688577 97.920976 12.021678 16.284714 -12.639274 nan nan nan -9.117568 -4.209343 40.720317 1.262868 -2.175785 -7.406087 1.656485 -2.686883 2.605059 -5.990041 8.182085 -12.226911 0.094755 5.460889 -15.964813 -19.843551 9.012930 -4.764354 -26.909890 9.171973 -4.494727 8.454446 -35.154234 -17.365153 14.244972 -10.294153 -31.028788 15.472073 -7.533468 -1.464792 28.084851 -5.724170 -8.654212 -0.502097 32.585033 -8.726155 1.369868 14.782259 -10.696831 
41.611507 44.017872 81.645370 174.789332 -7.570758 97.866901 25.836941 15.427800 -37.592224 -11.704205 1.753967 43.884641 -11.075419 9.220836 -3.169829 nan nan nan -4.163979 -16.078076 -66.771425 11.456258 -25.029273 94.143817 11.988976 15.758707 -12.430064 nan nan nan -9.586390 -3.629222 41.335742 1.781991 -2.549093 -7.286638 1.861072 -3.100376 2.309796 -5.972975 8.695289 -13.072589 0.524946 3.882431 -15.672091 -20.752189 7.594753 -4.490542 -26.919954 6.274217 -3.718596 8.364192 -33.883105 -17.378812 14.000062 -10.664508 -31.142629 17.755170 -6.952336 -1.484023 29.043154 -3.827124 -7.808629 -1.141302 30.067111 -8.378215 2.236796 14.268676 -11.369461 
40.115879 43.966362 81.301903 175.884650 -8.639328 98.353047 25.260595 14.269679 -39.155931 -12.616712 3.717869 44.746735 -10.821704 7.754166 -4.558808 nan nan nan -3.865238 -15.043528 -67.105354 11.138341 -25.237587 90.542000 12.006827 14.783876 -11.853548 nan nan nan -9.836383 -3.329341 41.531107 2.365998 -2.880962 -7.005470 1.765693 -3.339865 1.879943 -6.195673 8.697190 -13.367304 0.813837 2.540865 -15.478838 -21.508011 5.915368 -3.776104 -26.870422 3.514521 -2.983112 8.230118 -32.580255 -17.386305 13.223351 -11.331453 -30.433688 19.697366 -6.089358 -1.264576 29.999857 -2.280161 -6.679744 -1.895367 27.548185 -8.277780 3.832853 13.844852 -11.321639 
38.557369 44.006023 80.952545 177.000264 -9.588729 98.608766 24.190139 13.345742 -40.555756 -13.353806 4.864424 45.792533 -9.938225 6.634032 -6.359485 nan nan nan -3.819055 -14.168783 -66.920244 10.720358 -25.293059 87.070638 12.052896 13.193755 -10.725040 nan nan nan -9.500357 -3.320439 41.707624 2.699750 -3.124127 -6.709126 1.511827 -3.537355 1.497447 -6.608094 7.961162 -13.526912 0.961514 1.778004 -15.279773 -22.235541 3.797869 -2.824135 -26.882622 1.213311 -2.221432 8.492398 -31.579210 -17.437511 12.391587 -11.852981 -29.501225 21.056167 -4.776670 -0.969640 31.179152 -1.238457 -5.372193 -2.722234 25.292663 -8.303110 6.094975 13.451410 -10.571570 
36.881565 44.141811 80.605347 178.204524 -10.301825 98.593035 22.508411 12.960514 -41.990980 -13.938801 5.017703 47.285051 -8.734901 5.849819 -8.280037 nan nan nan -3.952170 -13.474695 -66.231851 10.184304 -25.225182 83.837991 11.904068 11.453732 -8.989338 nan nan nan -8.181096 -3.713056 41.884201 2.516509 -3.228253 -6.451663 1.066669 -3.832078 1.335443 -7.264948 6.582327 -13.709210 1.001205 1.575789 -15.269514 -22.978783 1.184297 -1.804298 -27.026044 -0.510634 -1.709077 9.242775 -30.998426 -17.307515 10.824157 -12.251762 -28.538287 21.851584 -3.000296 -0.647648 32.519987 -0.624655 -4.468578 -3.357934 23.223066 -7.925906 8.900720 13.222472 -8.872645 
35.142513 44.361526 80.305450 179.282876 -11.023554 98.215157 20.283294 13.214684 -43.159853 -14.465546 4.782967 49.088421 -7.153521 5.098455 -9.874174 nan nan nan -4.285776 -12.806752 -65.063563 9.710023 -24.740118 80.895654 11.547884 9.914052 -6.683526 nan nan nan -6.614873 -4.159908 42.212723 2.045508 -3.304261 -6.088828 0.612959 -4.088009 1.245259 -8.170826 4.878143 -14.159643 1.313078 1.347617 -15.029018 -23.564913 -1.658874 -0.875310 -27.379396 -1.777821 -1.279715 10.137734 -30.902157 -17.236476 9.725240 -12.616047 -27.677015 22.454781 -0.748323 -0.153467 33.674590 -0.246044 -3.963650 -3.883593 21.360517 -7.529112 11.841515 12.879784 -6.902702 
33.443623 44.626003 80.118088 -179.782874 -11.914140 97.404980 17.877029 13.524406 -43.794530 -14.830254 4.736804 50.874677 -5.569452 4.443364 -10.934941 nan nan nan -4.645974 -12.136045 -63.412611 9.465675 -23.564642 78.144254 11.093358 8.671756 -3.628423 nan nan nan -5.391560 -4.337052 43.040255 1.586997 -3.427302 -5.695403 0.390228 -4.228359 1.130099 -9.111614 3.124494 -15.028355 1.891578 0.892100 -14.399083 -23.922135 -4.462804 -0.221879 -27.869171 -2.980776 -0.751408 10.735324 -31.173604 -17.375624 9.407623 -12.999800 -27.013648 22.999627 1.630001 0.411891 34.565099 0.115735 -3.587964 -4.418829 19.884093 -7.450954 14.579328 12.374907 -5.016488 
31.840008 44.866680 79.999847 -178.745411 -12.763663 96.409865 15.614908 13.585527 -44.336351 -14.991526 4.870507 52.690951 -3.685107 4.028382 -11.432218 nan nan nan -4.666754 -11.523781 -61.607839 10.838446 -21.953708 75.635104 3.749176 6.855569 -3.030179 nan nan nan -4.202090 -4.494052 44.141666 1.214390 -3.462971 -5.592120 0.303474 -4.425111 1.355553 -9.860845 1.555294 -16.040366 2.205306 0.222353 -13.918910 -24.163879 -6.943046 0.103433 -28.384675 -4.361642 -0.497627 11.062065 -31.835121 -16.718328 8.051574 -13.500235 -26.675557 23.226745 3.760314 1.382220 35.418816 1.121377 -3.739978 -4.899784 18.704064 -6.730387 16.608932 12.020647 -4.217582 
